<svg xmlns="http://www.w3.org/2000/svg" viewBox="0 0 280 500" width="280" height="500">
  <defs>
    <linearGradient id="bg" x1="0%" y1="0%" x2="100%" y2="100%">
      <stop offset="0%" style="stop-color:#1e3528"/>
      <stop offset="100%" style="stop-color:#2d5a46"/>
    </linearGradient>
    <linearGradient id="goldLine" x1="0%" y1="0%" x2="100%" y2="0%">
      <stop offset="0%" style="stop-color:#f3cb51;stop-opacity:0"/>
      <stop offset="50%" style="stop-color:#f3cb51"/>
      <stop offset="100%" style="stop-color:#f3cb51;stop-opacity:0"/>
    </linearGradient>
  </defs>
  <rect width="280" height="500" fill="url(#bg)" rx="8"/>
  <g opacity="0.04" fill="#fff">
    <path d="M40,60 Q50,45 60,60 Q50,55 40,60Z" transform="rotate(15,50,60)"/>
    <path d="M100,35 Q110,20 120,35 Q110,30 100,35Z" transform="rotate(-10,110,35)"/>
    <path d="M180,50 Q190,35 200,50 Q190,45 180,50Z" transform="rotate(20,190,50)"/>
    <path d="M220,70 Q230,55 240,70 Q230,65 220,70Z" transform="rotate(-15,230,70)"/>
    <path d="M50,150 Q60,135 70,150 Q60,145 50,150Z" transform="rotate(25,60,150)"/>
    <path d="M210,140 Q220,125 230,140 Q220,135 210,140Z" transform="rotate(-20,220,140)"/>
  </g>
  <g opacity="0.25" fill="#f3cb51">
    <circle cx="100" cy="55" r="3"/>
    <circle cx="110" cy="50" r="2.5"/>
    <circle cx="120" cy="47" r="2"/>
    <circle cx="130" cy="45" r="3"/>
    <circle cx="140" cy="44" r="3.5"/>
    <circle cx="150" cy="45" r="3"/>
    <circle cx="160" cy="47" r="2"/>
    <circle cx="170" cy="50" r="2.5"/>
    <circle cx="180" cy="55" r="3"/>
  </g>
  <g opacity="0.15" stroke="#f3cb51" stroke-width="0.8" fill="none">
    <path d="M95,58 Q90,50 95,48"/>
    <path d="M185,58 Q190,50 185,48"/>
  </g>
  <line x1="70" y1="75" x2="210" y2="75" stroke="url(#goldLine)" stroke-width="0.8"/>
  <text x="140" y="118" text-anchor="middle" fill="#f3cb51" font-size="9" opacity="0.65" font-family="'Playfair Display', Georgia, serif" font-style="italic" letter-spacing="3">Undangan Pernikahan</text>
  <text x="140" y="160" text-anchor="middle" fill="#ffffff" font-size="28" font-family="'Sacramento', Georgia, serif" font-weight="bold">Lily</text>
  <text x="140" y="192" text-anchor="middle" fill="#f3cb51" font-size="11" font-family="'Lora', Georgia, serif" letter-spacing="4">&amp;</text>
  <text x="140" y="226" text-anchor="middle" fill="#ffffff" font-size="28" font-family="'Sacramento', Georgia, serif" font-weight="bold">Ethan</text>
  <line x1="80" y1="248" x2="200" y2="248" stroke="url(#goldLine)" stroke-width="1"/>
  <text x="140" y="266" text-anchor="middle" fill="#f3cb51" font-size="8" opacity="0.5">✿</text>
  <text x="140" y="298" text-anchor="middle" fill="#ffffff" font-size="11" opacity="0.8" letter-spacing="2">SABTU, 12 SEPTEMBER 2026</text>
  <text x="140" y="318" text-anchor="middle" fill="#f3cb51" font-size="9" opacity="0.6" letter-spacing="2">08.00 WIB</text>
  <text x="140" y="348" text-anchor="middle" fill="#ffffff" font-size="8" opacity="0.45" letter-spacing="3">TAMAN GRAHA ASRI, BANDUNG</text>
  <line x1="70" y1="380" x2="210" y2="380" stroke="url(#goldLine)" stroke-width="0.8"/>
  <g opacity="0.25" fill="#f3cb51">
    <circle cx="100" cy="400" r="3"/>
    <circle cx="110" cy="397" r="2.5"/>
    <circle cx="120" cy="395" r="2"/>
    <circle cx="130" cy="393" r="3"/>
    <circle cx="140" cy="392" r="3.5"/>
    <circle cx="150" cy="393" r="3"/>
    <circle cx="160" cy="395" r="2"/>
    <circle cx="170" cy="397" r="2.5"/>
    <circle cx="180" cy="400" r="3"/>
  </g>
  <rect x="70" y="420" width="140" height="26" rx="13" fill="#f3cb51" opacity="0.12"/>
  <text x="140" y="437" text-anchor="middle" fill="#f3cb51" font-size="8" letter-spacing="1">Garden Bliss</text>
  <g opacity="0.12" fill="none" stroke="#f3cb51" stroke-width="0.7">
    <path d="M35,45 Q28,38 35,30 Q42,38 35,45Z"/>
    <path d="M245,45 Q252,38 245,30 Q238,38 245,45Z"/>
    <path d="M35,455 Q28,462 35,470 Q42,462 35,455Z"/>
    <path d="M245,455 Q252,462 245,470 Q238,462 245,455Z"/>
  </g>
  <text x="20" y="270" text-anchor="middle" fill="#f3cb51" font-size="5.5" opacity="0.15" transform="rotate(-90,20,270)">GARDEN BLISS</text>
  <text x="260" y="270" text-anchor="middle" fill="#f3cb51" font-size="5.5" opacity="0.15" transform="rotate(90,260,270)">GARDEN BLISS</text>
</svg>
