<svg xmlns="http://www.w3.org/2000/svg" viewBox="0 0 280 500" width="280" height="500">
  <defs>
    <linearGradient id="bg" x1="0%" y1="0%" x2="100%" y2="100%">
      <stop offset="0%" style="stop-color:#1a1a2e"/>
      <stop offset="100%" style="stop-color:#16213e"/>
    </linearGradient>
    <linearGradient id="goldLine" x1="0%" y1="0%" x2="100%" y2="0%">
      <stop offset="0%" style="stop-color:#f3cb51;stop-opacity:0"/>
      <stop offset="50%" style="stop-color:#f3cb51"/>
      <stop offset="100%" style="stop-color:#f3cb51;stop-opacity:0"/>
    </linearGradient>
  </defs>
  <rect width="280" height="500" fill="url(#bg)" rx="8"/>
  <g opacity="0.03">
    <circle cx="20" cy="20" r="2" fill="#fff"/>
    <circle cx="60" cy="20" r="2" fill="#fff"/>
    <circle cx="100" cy="20" r="2" fill="#fff"/>
    <circle cx="140" cy="20" r="2" fill="#fff"/>
    <circle cx="180" cy="20" r="2" fill="#fff"/>
    <circle cx="220" cy="20" r="2" fill="#fff"/>
    <circle cx="260" cy="20" r="2" fill="#fff"/>
    <circle cx="20" cy="60" r="2" fill="#fff"/>
    <circle cx="60" cy="60" r="2" fill="#fff"/>
    <circle cx="100" cy="60" r="2" fill="#fff"/>
    <circle cx="140" cy="60" r="2" fill="#fff"/>
    <circle cx="180" cy="60" r="2" fill="#fff"/>
    <circle cx="220" cy="60" r="2" fill="#fff"/>
    <circle cx="260" cy="60" r="2" fill="#fff"/>
  </g>
  <line x1="60" y1="50" x2="220" y2="50" stroke="#f3cb51" stroke-width="0.5" opacity="0.4"/>
  <text x="140" y="38" text-anchor="middle" fill="#f3cb51" font-size="10" opacity="0.5" font-family="'Playfair Display', Georgia, serif">✦ ✦ ✦</text>
  <text x="140" y="100" text-anchor="middle" fill="#f3cb51" font-size="9" opacity="0.6" font-family="'Playfair Display', Georgia, serif" font-style="italic" letter-spacing="3">The Wedding of</text>
  <text x="140" y="155" text-anchor="middle" fill="#ffffff" font-size="30" font-family="'Playfair Display', Georgia, serif" font-weight="bold">Alexa</text>
  <text x="140" y="185" text-anchor="middle" fill="#f3cb51" font-size="13" font-family="'Playfair Display', Georgia, serif" letter-spacing="6">&amp;</text>
  <text x="140" y="220" text-anchor="middle" fill="#ffffff" font-size="30" font-family="'Playfair Display', Georgia, serif" font-weight="bold">Jamie</text>
  <line x1="80" y1="240" x2="200" y2="240" stroke="url(#goldLine)" stroke-width="1"/>
  <text x="140" y="258" text-anchor="middle" fill="#f3cb51" font-size="7" opacity="0.5">◇</text>
  <text x="140" y="290" text-anchor="middle" fill="#ffffff" font-size="11" opacity="0.8" letter-spacing="2">SABTU, 8 AGUSTUS 2026</text>
  <text x="140" y="310" text-anchor="middle" fill="#f3cb51" font-size="9" opacity="0.6" letter-spacing="2">09.00 WIB</text>
  <text x="140" y="340" text-anchor="middle" fill="#ffffff" font-size="8" opacity="0.45" letter-spacing="3">GEDUNG SERBAGUNA MERDEKA, JAKARTA</text>
  <line x1="60" y1="380" x2="220" y2="380" stroke="#f3cb51" stroke-width="0.5" opacity="0.4"/>
  <rect x="90" y="410" width="100" height="26" rx="13" fill="#f3cb51" opacity="0.15"/>
  <text x="140" y="427" text-anchor="middle" fill="#f3cb51" font-size="8" letter-spacing="1">Modern Elegance</text>
  <g opacity="0.15" fill="none" stroke="#f3cb51" stroke-width="0.8">
    <path d="M30,40 L30,80 M30,40 L70,40"/>
    <path d="M250,40 L250,80 M250,40 L210,40"/>
    <path d="M30,460 L30,420 M30,460 L70,460"/>
    <path d="M250,460 L250,420 M250,460 L210,460"/>
  </g>
  <text x="20" y="260" text-anchor="middle" fill="#f3cb51" font-size="6" opacity="0.2" transform="rotate(-90,20,260)">MODERN ELEGANCE</text>
  <text x="260" y="260" text-anchor="middle" fill="#f3cb51" font-size="6" opacity="0.2" transform="rotate(90,260,260)">MODERN ELEGANCE</text>
</svg>
