<svg xmlns="http://www.w3.org/2000/svg" viewBox="0 0 280 500" width="280" height="500">
  <defs>
    <linearGradient id="bg" x1="0%" y1="0%" x2="100%" y2="100%">
      <stop offset="0%" style="stop-color:#4a0010"/>
      <stop offset="100%" style="stop-color:#800020"/>
    </linearGradient>
    <linearGradient id="goldGrad" x1="0%" y1="0%" x2="100%" y2="0%">
      <stop offset="0%" style="stop-color:#f3cb51;stop-opacity:0"/>
      <stop offset="50%" style="stop-color:#f3cb51"/>
      <stop offset="100%" style="stop-color:#f3cb51;stop-opacity:0"/>
    </linearGradient>
    <pattern id="ornament" patternUnits="userSpaceOnUse" width="20" height="20">
      <circle cx="10" cy="10" r="0.8" fill="#f3cb51" opacity="0.08"/>
    </pattern>
  </defs>
  <rect width="280" height="500" fill="url(#bg)" rx="8"/>
  <rect width="280" height="500" fill="url(#ornament)" rx="8"/>
  <g fill="none" stroke="#f3cb51" opacity="0.2">
    <rect x="20" y="20" width="240" height="460" rx="4" stroke-width="0.8"/>
    <rect x="24" y="24" width="232" height="452" rx="3" stroke-width="0.4"/>
  </g>
  <g opacity="0.3" fill="#f3cb51">
    <path d="M120,48 L125,38 L130,48 L135,40 L140,48 L145,40 L150,48 L155,38 L160,48 L165,42 L160,55 L120,55 L115,42 Z" stroke="#f3cb51" stroke-width="0.5"/>
    <circle cx="125" cy="35" r="1.5"/>
    <circle cx="140" cy="33" r="1.5"/>
    <circle cx="155" cy="35" r="1.5"/>
  </g>
  <line x1="60" y1="68" x2="220" y2="68" stroke="url(#goldGrad)" stroke-width="1"/>
  <line x1="80" y1="73" x2="200" y2="73" stroke="url(#goldGrad)" stroke-width="0.4"/>
  <text x="140" y="118" text-anchor="middle" fill="#f3cb51" font-size="9" opacity="0.6" font-family="'Playfair Display', Georgia, serif" font-style="italic" letter-spacing="3">The Royal Wedding</text>
  <text x="140" y="168" text-anchor="middle" fill="#ffffff" font-size="26" font-family="'Great Vibes', Georgia, serif" font-weight="bold">Isabella</text>
  <text x="140" y="198" text-anchor="middle" fill="#f3cb51" font-size="11" font-family="'Cormorant Garamond', Georgia, serif" letter-spacing="5">&amp;</text>
  <text x="140" y="230" text-anchor="middle" fill="#ffffff" font-size="26" font-family="'Great Vibes', Georgia, serif" font-weight="bold">Alexander</text>
  <g opacity="0.4" fill="#f3cb51">
    <rect x="105" y="248" width="70" height="0.8" rx="0.4"/>
    <rect x="120" y="252" width="40" height="0.5" rx="0.25"/>
  </g>
  <line x1="70" y1="270" x2="210" y2="270" stroke="url(#goldGrad)" stroke-width="1"/>
  <text x="140" y="287" text-anchor="middle" fill="#f3cb51" font-size="7" opacity="0.4">◆</text>
  <text x="140" y="318" text-anchor="middle" fill="#ffffff" font-size="11" opacity="0.8" letter-spacing="2">SABTU, 24 OKTOBER 2026</text>
  <text x="140" y="338" text-anchor="middle" fill="#f3cb51" font-size="9" opacity="0.6" letter-spacing="2">08.00 WIB</text>
  <text x="140" y="368" text-anchor="middle" fill="#ffffff" font-size="8" opacity="0.45" letter-spacing="3">HOTEL GRAND ROYAL, JAKARTA</text>
  <line x1="60" y1="400" x2="220" y2="400" stroke="url(#goldGrad)" stroke-width="1"/>
  <line x1="80" y1="405" x2="200" y2="405" stroke="url(#goldGrad)" stroke-width="0.4"/>
  <g opacity="0.2" fill="#f3cb51" transform="translate(0,30)">
    <path d="M120,380 L125,372 L130,380 L135,374 L140,380 L145,374 L150,380 L155,372 L160,380 L165,376 L160,388 L120,388 L115,376 Z" stroke="#f3cb51" stroke-width="0.4"/>
  </g>
  <rect x="60" y="430" width="160" height="26" rx="13" fill="#f3cb51" opacity="0.12"/>
  <text x="140" y="447" text-anchor="middle" fill="#f3cb51" font-size="8" letter-spacing="1">Classic Royal</text>
  <g opacity="0.15" stroke="#f3cb51" stroke-width="0.5">
    <line x1="30" y1="110" x2="30" y2="390"/>
    <line x1="250" y1="110" x2="250" y2="390"/>
  </g>
  <g opacity="0.1" fill="none" stroke="#f3cb51" stroke-width="0.6">
    <path d="M28,28 Q28,38 38,38"/>
    <path d="M252,28 Q252,38 242,38"/>
    <path d="M28,472 Q28,462 38,462"/>
    <path d="M252,472 Q252,462 242,462"/>
  </g>
</svg>
